<svg width="37" height="33" viewBox="0 0 37 33" fill="none" xmlns="http://www.w3.org/2000/svg">
<mask id="mask0_990_1170" style="mask-type:luminance" maskUnits="userSpaceOnUse" x="0" y="0" width="37" height="33">
<path d="M36.2573 0H0V33H36.2573V0Z" fill="white"/>
</mask>
<g mask="url(#mask0_990_1170)">
<path d="M34.4472 5.47735L26.5264 0H16.7927V4.14539L9.73648 0H0.00278736V15.4942C-0.0251029 16.8534 0.114348 18.7426 0.839495 20.8085C3.12649 27.278 10.6708 33.8291 19.9443 32.9049C28.8273 32.0078 35.9533 24.5733 36.2462 15.4942V6.67339L34.4333 5.47735H34.4472ZM9.72254 27.6722C9.72254 27.6722 8.18857 26.68 7.01718 25.6199C3.51696 22.4666 2.8197 18.4979 2.8197 18.4979C2.70814 17.832 2.66631 17.2747 2.66631 16.9077V2.58237L4.21421 3.493L9.73648 6.74135V27.6857L9.72254 27.6722ZM25.6897 28.175C24.7693 28.6779 23.8071 29.0993 22.8031 29.4255C22.7333 29.4526 22.6636 29.4662 22.5939 29.4934C22.5242 29.5206 22.4544 29.5342 22.3847 29.5614C22.3289 29.575 22.2731 29.5886 22.2174 29.6021C22.1337 29.6293 22.05 29.6429 21.9664 29.6701C21.8966 29.6837 21.8269 29.7109 21.7572 29.7245C21.6874 29.7381 21.6177 29.7652 21.548 29.7788C21.4922 29.7788 21.4364 29.806 21.3807 29.8196C21.3388 29.8196 21.3109 29.8332 21.2691 29.8468C21.2273 29.8468 21.1854 29.8604 21.1575 29.874C21.0878 29.874 21.032 29.9012 20.9623 29.9147C20.9344 29.9147 20.9205 29.9147 20.8926 29.9283C20.8228 29.9283 20.7531 29.9555 20.6973 29.9691C20.6416 29.9691 20.5858 29.9827 20.53 29.9963C20.4463 29.9963 20.3766 30.0235 20.2929 30.0371C20.265 30.0371 20.2372 30.0371 20.1953 30.0371C20.1535 30.0371 20.1256 30.0371 20.0838 30.0507C20.028 30.0507 19.9722 30.0507 19.9164 30.0642C19.8467 30.0642 19.777 30.0778 19.7072 30.0914C19.6375 30.0914 19.5678 30.105 19.4981 30.105V2.58237L25.7315 6.23847L26.5682 6.72776V27.6722C26.2893 27.8488 26.0104 28.0119 25.7315 28.175H25.6897Z" fill="white"/>
</g>
</svg>
