<svg xmlns="http://www.w3.org/2000/svg" viewBox="0 0 800 800">
  <path fill="#441151" d="M373 687a2433 2433 0 0 1-71-41 9559 9559 0 0 1-149-86l-11-7V359l1-194a914 914 0 0 1 84 47l61-36 60-35 10 7 11 7 77 43 75 44 68-39 68-38 1 194v194l-17 10-36 20a10483 10483 0 0 1-157 91l-35 21-1-196-1-196-69-40c-60-35-70-40-75-36s-3 6 16 17l22 12v113c0 74-1 113-3 113s-10-4-17-9l-15-8-14-8-32-19-19-11V236l-13-7-15-7c-1 0-2 70-2 156 0 121 1 157 4 160a895 895 0 0 0 89 52 854 854 0 0 0 86 48l1-176V285l17 9 16 9v196l-1 196-14-8zm98-62 22-13V264l-28-17a27882 27882 0 0 1-117-65c-3 0-13 5-22 11-14 8-17 12-14 14l65 38 64 39c3 4 4 45 4 180l1 174c1 0 12-5 25-13zm91-53 59-34c3-3 4-39 4-160 0-148 0-157-6-155l-27 15-42 24-20 12-1 159-1 159 11-6 23-14zM270 276c-1-4-25-18-30-18-1 0-2 34-2 75v75l16 11 16 10 1-75-1-78z"/>
</svg>
